# xmcd CD database file
# Copyright (C) 1993-1998 Ti Kan
# 
# Track frame offsets:
#     150
#     22850
#     40720
#     59265
#     78885
#     99830
#     114177
#     136487
#     153940
# 
# Disc length: 2312 seconds
# 
# Revision: 1
# Processed by: cddbd v1.4b41PL1 Copyright (c) Steve Scherf et al.
# Submitted via: DiscPlay 4.0.4
# 
DISCID=59090609
DTITLE=H-Town, U-Mynd, Chris Brinson and The Gospel Music Ministry Choir - Chr
DTITLE=istmas At Luke's House
DYEAR=1900
DGENRE=
TTITLE0=We Bring You Joy
TTITLE1=Coming Home For Christmas
TTITLE2=Holidays
TTITLE3=Silent Night
TTITLE4=Unto Us
TTITLE5=This Christmas
TTITLE6=Knockin' Boots For Christmas
TTITLE7=Will You Be There For Christmas
TTITLE8=H-Town's Coming To Town
EXTD=
EXTT0=
EXTT1=
EXTT2=
EXTT3=
EXTT4=
EXTT5=
EXTT6=
EXTT7=
EXTT8=
PLAYORDER=
